<?xml version="1.0" standalone="no"?>
<!DOCTYPE svg PUBLIC "-//W3C//DTD SVG 20010904//EN"
 "http://www.w3.org/TR/2001/REC-SVG-20010904/DTD/svg10.dtd">
<svg version="1.0" xmlns="http://www.w3.org/2000/svg"
 width="513.000000pt" height="513.000000pt" viewBox="0 0 513.000000 513.000000"
 preserveAspectRatio="xMidYMid meet">
<metadata>
Created by potrace 1.11, written by Peter Selinger 2001-2013
</metadata>
<g transform="translate(0.000000,513.000000) scale(0.100000,-0.100000)"
fill="#000000" stroke="none">
<path d="M3371 5072 c-19 -2 -44 -10 -55 -18 -11 -8 -27 -14 -36 -14 -9 0 -30
-13 -48 -30 -18 -16 -48 -32 -67 -36 -19 -3 -35 -10 -35 -15 0 -4 -17 -11 -37
-15 -37 -7 -67 -27 -57 -37 3 -3 13 -3 21 0 15 6 33 -12 33 -32 0 -5 -4 -4 -9
4 -8 12 -14 13 -36 3 -15 -7 -30 -10 -35 -7 -15 9 -29 -19 -17 -36 19 -26 54
-41 60 -26 3 6 6 2 6 -10 1 -12 9 -28 19 -35 9 -7 17 -24 17 -38 0 -38 42 -54
88 -35 l35 14 16 -39 c9 -22 13 -46 10 -54 -5 -14 -56 -30 -86 -27 -11 1 -18
-4 -18 -13 0 -9 -8 -16 -17 -15 -11 0 -13 3 -5 6 20 8 14 39 -12 52 -15 8 -36
10 -56 6 -23 -5 -30 -4 -26 4 4 6 0 11 -11 11 -12 0 -18 -8 -19 -24 -2 -22 1
-23 37 -19 22 3 39 3 39 -1 0 -12 -46 -51 -85 -72 -42 -23 -57 -44 -31 -44 9
0 16 -5 16 -10 0 -22 47 -29 91 -14 60 21 62 24 43 45 -16 18 -12 25 11 19 33
-8 90 -8 95 -1 3 5 17 12 32 16 23 6 29 3 39 -19 10 -21 19 -26 51 -26 34 0
38 3 38 25 0 25 -14 33 -25 15 -10 -16 -55 -12 -55 5 0 11 12 15 50 15 35 0
48 -4 45 -12 -3 -7 8 -21 25 -30 17 -10 30 -25 30 -36 0 -15 10 -21 41 -26 25
-4 46 -2 55 5 7 6 33 9 58 7 25 -1 47 2 48 7 2 6 -19 21 -46 34 -43 20 -47 24
-31 33 10 6 46 13 81 16 65 5 76 15 27 25 -16 4 -36 18 -46 31 -17 24 -17 25
12 42 17 10 27 22 24 27 -3 6 0 15 8 21 8 6 27 28 42 49 15 20 35 37 43 37 7
0 14 9 14 19 0 14 -5 18 -19 14 -23 -6 -39 16 -20 27 10 7 10 12 1 23 -12 14
-3 25 48 57 13 9 13 11 0 20 -13 9 -13 11 0 20 12 8 9 10 -12 10 -16 0 -28 4
-28 9 0 5 -13 14 -28 20 -22 9 -35 9 -55 0 -20 -9 -33 -9 -56 1 -16 6 -39 9
-50 5 -12 -3 -21 -3 -21 2 0 4 -18 17 -40 27 -22 11 -40 22 -40 26 0 10 -38
16 -79 12z m89 -346 c0 -2 -11 -11 -25 -20 -25 -17 -25 -16 -13 4 11 17 38 29
38 16z m-110 -85 c0 -3 -3 -16 -6 -28 -8 -27 -54 -33 -54 -7 0 11 6 14 18 10
14 -5 14 -4 -2 9 -11 8 -27 15 -35 15 -20 0 -2 17 24 23 14 3 12 5 -10 7 -25
1 -27 3 -10 9 14 6 28 2 47 -12 16 -12 28 -23 28 -26z m-360 -135 c0 -3 -4 -8
-10 -11 -5 -3 -10 -1 -10 4 0 6 5 11 10 11 6 0 10 -2 10 -4z"/>
<path d="M2890 4740 c0 -5 5 -10 11 -10 5 0 7 5 4 10 -3 6 -8 10 -11 10 -2 0
-4 -4 -4 -10z"/>
<path d="M2940 4710 c-8 -5 -10 -10 -5 -10 6 0 17 5 25 10 8 5 11 10 5 10 -5
0 -17 -5 -25 -10z"/>
<path d="M4245 4701 c-33 -9 -75 -26 -94 -38 -27 -17 -44 -21 -76 -16 -35 4
-48 1 -83 -23 -22 -16 -43 -37 -45 -46 -3 -10 -13 -18 -22 -18 -26 0 -75 -32
-75 -50 0 -13 -2 -13 -10 0 -8 12 -11 12 -27 -2 -10 -8 -28 -19 -40 -22 -25
-8 -39 -36 -18 -36 8 0 15 5 15 11 0 5 5 7 12 3 13 -8 24 -10 101 -20 26 -3
47 -9 47 -13 0 -10 -119 -33 -167 -33 -21 0 -53 -6 -71 -14 -18 -7 -36 -13
-40 -12 -4 1 -18 -4 -32 -11 -22 -10 -20 -11 20 -6 24 3 48 11 52 18 5 9 10 9
20 -1 16 -16 -16 -41 -57 -42 -49 -2 -60 -6 -90 -34 -15 -14 -31 -23 -36 -21
-4 3 -10 1 -13 -4 -3 -4 12 -8 34 -7 24 0 40 6 40 13 0 18 32 24 83 14 27 -5
50 -5 53 0 8 14 24 11 24 -5 0 -8 -7 -17 -16 -20 -8 -3 -12 -10 -9 -16 10 -16
57 -12 77 7 17 15 20 15 29 3 12 -20 -21 -47 -67 -56 -19 -3 -34 -12 -34 -19
0 -16 -19 -24 -51 -20 -13 1 -16 0 -6 -2 23 -6 22 -23 -3 -23 -11 0 -20 -4
-20 -10 0 -12 37 -13 42 -2 2 5 20 7 41 4 44 -5 46 -16 15 -75 -13 -23 -23
-43 -24 -45 -1 -1 -28 -6 -60 -10 l-59 -8 92 -7 c72 -6 100 -4 128 7 20 9 34
20 30 26 -4 6 11 10 39 10 25 0 69 5 98 12 49 11 51 12 23 18 -25 5 -27 7 -10
12 11 3 40 6 65 6 25 1 65 8 89 17 24 8 46 13 49 10 3 -2 10 1 16 9 10 11 218
76 245 76 6 0 11 -6 11 -14 0 -15 -21 -26 -51 -26 -10 0 -19 -4 -19 -10 0 -5
-9 -10 -21 -10 -12 0 -19 -5 -17 -12 5 -14 110 -31 118 -19 3 4 37 13 75 20
39 7 81 17 95 23 14 6 41 18 60 26 19 9 49 21 65 27 17 7 47 20 67 30 25 12
50 16 78 12 22 -3 42 -2 45 3 3 4 22 11 42 14 21 4 55 12 76 17 l37 10 0 88
c0 72 -3 90 -16 95 -9 3 -20 4 -25 1 -5 -3 -17 -1 -28 5 -13 7 -22 7 -26 0 -3
-5 -19 -10 -36 -10 -30 0 -39 -14 -16 -24 6 -3 1 -3 -12 0 -15 4 -21 2 -17 -4
3 -6 1 -14 -4 -17 -21 -13 -125 -23 -137 -13 -7 6 -14 5 -18 -2 -3 -5 -24 -10
-46 -10 l-41 0 24 29 c13 17 30 28 39 25 9 -2 24 5 34 16 10 11 24 20 32 20 8
0 13 6 12 13 -4 30 3 37 36 37 38 0 85 18 85 33 0 5 -17 7 -37 5 -23 -3 -47 1
-61 10 -18 11 -25 12 -37 2 -18 -15 -83 -21 -142 -13 -32 4 -43 10 -43 22 0 9
-5 22 -12 29 -9 9 -9 15 0 24 18 18 15 28 -10 28 -12 0 -30 7 -40 17 -17 15
-18 15 -18 -2 0 -11 -5 -15 -16 -11 -9 3 -27 6 -40 6 -14 0 -24 6 -24 14 0 8
-7 17 -16 20 -29 11 -169 3 -229 -13z m-94 -278 c16 -10 28 -22 26 -28 -9 -27
-217 -69 -231 -47 -7 11 0 14 79 28 l40 7 -30 7 -30 7 28 11 c16 7 40 12 55
12 21 0 24 2 12 10 -28 18 19 11 51 -7z m435 -23 c20 0 18 -27 -3 -39 -15 -9
-12 -11 17 -12 28 -1 25 -3 -19 -9 -29 -5 -57 -13 -61 -20 -5 -8 -9 -5 -12 8
-7 25 1 38 27 45 18 4 18 5 -2 6 -16 1 -23 7 -23 22 0 15 4 19 19 14 11 -3 23
0 27 7 7 10 9 9 12 -4 2 -10 10 -18 18 -18z m14 -100 c0 -5 -7 -10 -15 -10 -8
0 -15 5 -15 10 0 6 7 10 15 10 8 0 15 -4 15 -10z m-723 -36 c-3 -3 -12 -4 -19
-1 -8 3 -5 6 6 6 11 1 17 -2 13 -5z"/>
<path d="M3837 4626 c-4 -9 -13 -16 -22 -16 -15 0 -21 -25 -7 -33 4 -3 19 0
33 6 23 11 24 14 14 35 -10 19 -14 20 -18 8z"/>
<path d="M3745 4530 c3 -5 10 -10 16 -10 5 0 9 5 9 10 0 6 -7 10 -16 10 -8 0
-12 -4 -9 -10z"/>
<path d="M3288 4423 c6 -2 18 -2 25 0 6 3 1 5 -13 5 -14 0 -19 -2 -12 -5z"/>
<path d="M3680 4420 c-11 -7 -5 -8 20 -4 43 8 51 14 19 14 -13 0 -31 -5 -39
-10z"/>
<path d="M3354 4385 c-10 -8 -31 -15 -46 -15 -19 0 -25 -4 -23 -17 2 -10 4
-21 4 -25 1 -5 9 -8 19 -8 15 1 15 2 -3 16 -18 15 -14 15 62 12 47 -2 84 1 86
6 2 6 16 5 35 -3 26 -11 35 -11 47 -1 40 33 -11 48 -86 26 -70 -21 -83 -21
-76 4 6 24 6 24 -19 5z"/>
<path d="M3210 4380 c0 -5 15 -10 33 -9 27 0 29 2 12 9 -28 12 -45 12 -45 0z"/>
<path d="M3450 4320 c0 -5 5 -10 11 -10 5 0 7 5 4 10 -3 6 -8 10 -11 10 -2 0
-4 -4 -4 -10z"/>
<path d="M3408 4303 c7 -3 16 -2 19 1 4 3 -2 6 -13 5 -11 0 -14 -3 -6 -6z"/>
<path d="M3610 4280 c0 -5 5 -10 11 -10 5 0 7 5 4 10 -3 6 -8 10 -11 10 -2 0
-4 -4 -4 -10z"/>
<path d="M3435 4250 c-18 -8 -17 -9 8 -9 16 -1 26 3 22 9 -3 6 -7 10 -8 9 -1
0 -11 -4 -22 -9z"/>
<path d="M3735 4100 c3 -5 10 -10 16 -10 5 0 9 5 9 10 0 6 -7 10 -16 10 -8 0
-12 -4 -9 -10z"/>
<path d="M3410 4074 c0 -9 5 -14 12 -12 18 6 21 28 4 28 -9 0 -16 -7 -16 -16z"/>
<path d="M3645 4050 c3 -5 10 -10 16 -10 5 0 9 5 9 10 0 6 -7 10 -16 10 -8 0
-12 -4 -9 -10z"/>
<path d="M3553 4033 c9 -2 23 -2 30 0 6 3 -1 5 -18 5 -16 0 -22 -2 -12 -5z"/>
<path d="M3535 4000 c-3 -5 1 -10 9 -10 9 0 16 5 16 10 0 6 -4 10 -9 10 -6 0
-13 -4 -16 -10z"/>
<path d="M5105 3710 c-7 -12 2 -30 16 -30 5 0 9 9 9 20 0 21 -15 27 -25 10z"/>
<path d="M4210 3026 c0 -14 8 -16 41 -12 51 6 64 16 21 16 -16 0 -37 3 -46 6
-11 4 -16 1 -16 -10z"/>
<path d="M30 2765 c-11 -13 -15 -13 -23 -3 -6 9 -7 8 -3 -5 3 -11 9 -31 13
-45 3 -14 17 -35 29 -46 28 -25 37 -71 14 -71 -8 0 -21 -4 -29 -9 -10 -7 -8
-14 13 -33 14 -13 26 -32 26 -43 0 -10 9 -25 20 -33 22 -15 17 -57 -7 -57 -8
0 -11 5 -8 10 4 6 -10 10 -34 10 l-41 0 0 -1220 0 -1220 2565 0 2565 0 0 1010
0 1010 -137 2 c-261 5 -865 -17 -1193 -42 -75 -5 -342 -17 -594 -25 -251 -8
-526 -19 -609 -24 -103 -6 -156 -6 -164 1 -9 7 -13 7 -13 -1 0 -8 -35 -10
-121 -7 -67 3 -124 7 -127 10 -3 3 -11 1 -18 -5 -7 -6 -64 -12 -126 -14 -62
-2 -138 -9 -168 -15 -30 -6 -118 -13 -195 -16 -77 -2 -170 -6 -207 -8 -37 -3
-70 -1 -73 4 -3 4 -21 4 -41 0 -20 -5 -63 -6 -96 -4 -35 3 -65 1 -73 -6 -7 -6
-79 -12 -176 -14 -90 -2 -164 -5 -164 -6 0 -4 -89 -8 -305 -13 -113 -3 -190
-3 -172 0 18 2 30 9 27 14 -4 5 1 9 9 9 21 0 21 16 0 24 -33 13 -7 31 47 33
30 1 106 4 169 8 63 3 124 5 135 5 11 0 43 7 70 14 173 49 182 50 320 31 134
-19 306 -16 313 5 2 5 15 10 28 10 13 0 24 5 24 11 0 5 -4 8 -8 5 -4 -2 -14
-1 -22 5 -12 7 -10 9 8 9 13 0 37 8 55 17 18 9 55 20 82 24 28 4 86 15 130 23
50 10 158 18 289 21 137 4 214 9 223 17 8 7 40 10 75 9 85 -4 279 10 273 19
-7 11 48 20 121 20 65 0 113 13 126 33 8 13 14 14 93 24 27 3 54 12 60 20 10
13 22 13 88 3 42 -6 96 -9 119 -6 115 14 146 19 188 33 25 9 52 23 60 32 8 10
24 20 34 24 27 11 11 21 -36 24 -23 2 -56 12 -75 23 -18 10 -40 17 -49 13 -10
-4 -17 2 -21 16 -6 22 -44 38 -62 26 -6 -3 -11 -17 -11 -31 0 -13 -2 -24 -5
-24 -2 0 -28 15 -57 34 -29 18 -68 37 -86 41 -32 7 -34 6 -27 -15 4 -12 3 -20
-1 -18 -5 3 -26 13 -46 23 -21 9 -38 24 -38 31 0 8 -7 14 -15 14 -8 0 -15 4
-15 9 0 12 -41 22 -57 13 -19 -11 12 -52 40 -52 12 0 33 -9 46 -19 13 -10 32
-16 41 -14 22 6 33 -11 25 -37 -8 -24 -25 -26 -25 -3 0 15 -2 14 -15 -3 -10
-13 -17 -15 -22 -8 -5 6 -22 15 -40 18 -17 4 -34 14 -37 22 -3 9 -10 13 -15
10 -5 -3 -14 1 -21 9 -7 8 -21 15 -31 15 -10 0 -21 5 -25 11 -4 8 -9 7 -15 -2
-6 -11 -16 -11 -54 -1 -25 7 -55 12 -67 12 -12 0 -50 16 -85 35 -86 47 -184
80 -193 65 -5 -8 -9 -7 -13 3 -4 10 -16 13 -43 10 -21 -2 -40 -6 -42 -8 -4 -4
28 -42 76 -90 17 -18 32 -40 32 -48 0 -9 5 -19 10 -22 16 -10 12 -21 -13 -34
-19 -10 -32 -10 -65 0 -35 10 -41 15 -36 33 4 19 -2 24 -44 38 -62 19 -77 12
-69 -35 l5 -35 -36 5 c-20 3 -41 10 -46 14 -14 12 -59 11 -51 -1 3 -5 -3 -10
-15 -10 -17 0 -20 4 -15 20 5 14 2 20 -9 20 -9 0 -16 6 -16 13 -1 7 -6 5 -14
-5 -18 -24 -25 -22 -19 5 4 21 4 21 -10 4 -14 -17 -16 -17 -48 2 -26 16 -51
21 -109 21 -56 0 -86 5 -115 20 -53 27 -60 25 -36 -9 23 -32 18 -45 -10 -30
-29 15 -167 23 -182 11 -8 -7 -18 -7 -27 -2 -8 5 -18 6 -22 4 -4 -3 -8 1 -8 9
0 8 12 18 28 22 l27 7 -23 18 c-30 25 -95 35 -120 19 -18 -11 -24 -10 -40 4
-19 18 -72 24 -72 8 0 -5 -21 -1 -47 9 -27 9 -54 15 -61 13 -7 -3 -20 -2 -30
3 -41 18 -37 8 22 -51 34 -34 73 -66 86 -70 13 -4 35 -18 49 -31 30 -28 46
-30 55 -9 6 16 66 21 80 8 4 -4 15 -8 23 -8 9 0 18 -6 20 -12 3 -8 -5 -13 -20
-13 -30 0 -61 -42 -52 -70 4 -11 15 -25 26 -30 24 -13 24 -22 -1 -38 -16 -10
-24 -10 -40 0 -16 10 -24 10 -39 1 -16 -10 -27 -8 -66 12 -25 14 -55 25 -66
25 -10 0 -19 5 -19 10 0 6 -5 10 -11 10 -6 0 -23 9 -37 21 -16 12 -28 16 -30
10 -6 -18 -60 20 -73 51 -9 21 -16 27 -30 23 -12 -4 -21 -1 -25 8 -3 9 -16 18
-30 21 -13 4 -24 12 -24 19 -1 21 -69 65 -111 72 -22 4 -43 13 -45 20 -3 7
-31 25 -62 41 -31 16 -61 35 -65 42 -4 6 -19 12 -32 12 -13 0 -37 8 -55 18
-30 17 -31 17 -49 -7 -15 -20 -21 -22 -39 -12 -11 6 -33 11 -49 11 -15 0 -39
6 -53 13 -63 34 -106 60 -121 73 -9 8 -23 12 -31 9 -9 -4 -18 1 -21 9 -9 22
-90 22 -107 1z m1460 -341 c0 -13 -30 -34 -47 -33 -10 0 -13 3 -5 6 6 2 12 11
12 19 0 8 9 14 20 14 11 0 20 -3 20 -6z m1874 -60 c9 -3 16 -10 16 -14 0 -10
-38 -1 -46 11 -6 10 7 12 30 3z m-2874 -395 c0 -5 -6 -9 -14 -9 -23 0 -46 11
-41 20 6 10 55 0 55 -11z m63 -16 c-7 -2 -19 -2 -25 0 -7 3 -2 5 12 5 14 0 19
-2 13 -5z m-184 -87 c-12 -10 -60 -16 -54 -6 3 5 18 10 32 10 15 0 24 -2 22
-4z m-86 -33 c-7 -2 -19 -2 -25 0 -7 3 -2 5 12 5 14 0 19 -2 13 -5z"/>
<path d="M4340 2720 c12 -8 10 -10 -10 -10 -19 0 -21 -3 -11 -9 9 -6 24 -5 38
2 17 8 20 13 11 19 -7 4 -20 8 -28 8 -13 0 -13 -1 0 -10z"/>
<path d="M4567 2714 c-3 -4 -35 -9 -69 -11 -35 -3 -72 -10 -82 -15 -34 -18
-139 -40 -207 -43 -37 -2 -75 -8 -86 -14 -11 -5 -31 -8 -44 -5 -13 3 -1 -6 26
-20 54 -27 81 -33 69 -15 -5 9 4 10 32 4 52 -10 203 -6 225 6 10 5 42 9 73 9
30 0 58 5 62 11 3 6 19 9 35 7 32 -5 42 17 12 25 -14 4 -13 5 4 6 12 0 26 -6
31 -16 8 -13 10 -11 10 10 0 18 -7 27 -22 30 -16 3 -15 5 7 6 39 2 33 21 -7
21 -19 0 -41 2 -48 5 -8 3 -17 3 -21 -1z"/>
<path d="M1640 2651 c-25 -7 -47 -15 -49 -18 -3 -2 10 -17 27 -34 29 -28 37
-31 74 -26 22 3 44 10 47 15 3 6 17 12 30 13 56 9 24 46 -49 59 -20 3 -54 -1
-80 -9z"/>
<path d="M2635 2570 c10 -11 23 -20 30 -20 6 0 18 -11 25 -25 16 -30 30 -33
23 -5 -3 11 -10 20 -15 20 -5 0 -8 6 -6 12 5 14 -34 38 -60 38 -13 0 -12 -3 3
-20z"/>
<path d="M2715 2560 c-6 -10 74 -50 98 -50 19 1 -36 40 -55 40 -10 0 -18 5
-18 10 0 13 -17 13 -25 0z"/>
<path d="M4175 2542 c6 -6 24 -14 40 -18 21 -4 27 -3 20 4 -5 6 -23 14 -40 18
-21 4 -27 3 -20 -4z"/>
<path d="M3970 2462 c0 -13 72 -22 85 -11 5 5 -1 9 -15 9 -14 0 -35 3 -47 6
-13 4 -23 2 -23 -4z"/>
<path d="M3400 2395 c7 -8 20 -15 29 -15 13 1 13 3 -3 15 -26 19 -42 19 -26 0z"/>
<path d="M3468 2378 c3 -12 7 -17 10 -10 3 10 10 9 29 -3 14 -9 27 -15 29 -12
6 6 -29 34 -53 41 -18 6 -21 4 -15 -16z"/>
<path d="M4999 2060 c-53 -4 -105 -13 -115 -19 -18 -11 -18 -12 1 -7 11 2 59
7 108 11 48 4 100 11 115 15 32 10 23 10 -109 0z"/>
<path d="M420 1870 c0 -5 9 -10 20 -10 11 0 20 5 20 10 0 6 -9 10 -20 10 -11
0 -20 -4 -20 -10z"/>
<path d="M498 1843 c6 -2 18 -2 25 0 6 3 1 5 -13 5 -14 0 -19 -2 -12 -5z"/>
</g>
</svg>
